<?xml version="1.0" standalone="no"?><!DOCTYPE svg PUBLIC "-//W3C//DTD SVG 1.1//EN" "http://www.w3.org/Graphics/SVG/1.1/DTD/svg11.dtd">
<svg t="1610094406110" class="icon" viewBox="0 0 1024 1024" version="1.1" xmlns="http://www.w3.org/2000/svg" p-id="1218"
    width="200" height="200"><defs><style type="text/css"></style></defs><path d="M768 492.544a32 32 0 0 1 31.488 26.24l0.512 5.76V800a32 32 0 0 1-3.392 14.336c-9.92 19.84-30.656 47.488-64.64 74.688C676.48 933.44 603.392 960 512 960s-164.416-26.624-219.968-71.04c-33.984-27.2-54.72-54.848-64.64-74.688a32 32 0 0 1-3.008-9.408L224 800V524.544a32 32 0 0 1 63.488-5.76l0.512 5.76v267.136l2.944 4.544c6.72 9.856 17.152 22.144 31.808 35.008l9.216 7.808c44.416 35.52 103.424 56.96 180.032 56.96s135.616-21.44 180.032-56.96a205.44 205.44 0 0 0 41.024-42.816l2.944-4.608V524.544a32 32 0 0 1 26.24-31.488l5.76-0.512zM435.2 84.928a151.424 151.424 0 0 1 153.6 0l355.328 207.424a32 32 0 0 1 0 55.296L588.8 555.072a151.424 151.424 0 0 1-153.6 0l-240.128-140.16V672a32 32 0 0 1-63.424 5.76l-0.512-5.76-0.064-294.4-51.2-29.952a32 32 0 0 1-4.864-51.84l4.864-3.456z m112.832 50.88a87.232 87.232 0 0 0-80.576 4.416L159.424 320l19.52 11.392a32 32 0 0 1 0.64 0.32L467.392 499.84c25.152 14.656 54.592 16.128 80.576 4.416l8.512-4.416L864.512 320 556.544 140.224z" p-id="1219"></path></svg>